<?xml version="1.0" encoding="utf-8"?>
<!-- Generator: Adobe Illustrator 25.4.1, SVG Export Plug-In . SVG Version: 6.00 Build 0)  -->
<svg version="1.1"
	 id="Layer_1" image-rendering="optimizeQuality" shape-rendering="geometricPrecision" text-rendering="geometricPrecision" xmlns:xodm="http://www.corel.com/coreldraw/odm/2003"
	 xmlns="http://www.w3.org/2000/svg" xmlns:xlink="http://www.w3.org/1999/xlink" x="0px" y="0px" viewBox="0 0 512 512"
	 style="enable-background:new 0 0 512 512;" xml:space="preserve">
<style type="text/css">
	.st0{fill-rule:evenodd;clip-rule:evenodd;fill:#D6457D;}
</style>
<g id="Layer_x0020_1">
	<path class="st0" d="M315.4,242.5c-5.2-12-10.6-24-16.4-35.8c49.3-21.3,88.9-50.3,118.4-87.1c28.8,34,46.9,77.2,49.5,124.5
		C411.9,235.1,361.4,234.6,315.4,242.5L315.4,242.5z M373.4,431.8c-9.3-50.2-23-99.2-41-147.1c40-5.7,84.1-4.2,132.2,4.2
		C455.3,348.3,421.4,399.6,373.4,431.8z M126.2,422.6c42-65.9,95.6-108.8,162.1-128.6c19.8,51.6,34.3,104.7,43.6,159.1
		C262.7,479.9,184.9,468.4,126.2,422.6L126.2,422.6z M44.8,250.5c82.1-0.1,152.9-9.6,212.2-28.2c5,10.1,9.7,20.3,14.3,30.6
		c-72.1,22.5-131.5,68.7-177.8,138.2C60.1,351.1,43.5,302.5,44.8,250.5L44.8,250.5z M160.6,67.5C189,104.7,214.1,143,236,182.3
		c-51.8,15.3-113.7,23.1-185.3,23.6C65.5,145.4,106.3,95.1,160.6,67.5z M384.9,88.7c-25.7,33.1-61.2,59.4-106.4,78.5
		c-21.7-39.7-46.4-78.4-74.4-116C267.5,35.1,333,48.6,384.9,88.7z M256,0C114.6,0,0,114.6,0,256s114.6,256,256,256
		c141.4,0,256-114.6,256-256S397.4,0,256,0z"/>
</g>
</svg>
